<svg xmlns="http://www.w3.org/2000/svg" width="24" height="24" fill="none" stroke="var(--token-54b298b7-7135-4031-be62-f3bbba2a7493, rgb(153, 153, 153)) /* {&quot;name&quot;:&quot;Grey 999&quot;} */" stroke-width="2" stroke-linecap="round" stroke-linejoin="round" style="width:100%;cursor:auto;height:100%"><path d="M18 3a3 3 0 0 0-3 3v12a3 3 0 0 0 3 3 3 3 0 0 0 3-3 3 3 0 0 0-3-3H6a3 3 0 0 0-3 3 3 3 0 0 0 3 3 3 3 0 0 0 3-3V6a3 3 0 0 0-3-3 3 3 0 0 0-3 3 3 3 0 0 0 3 3h12a3 3 0 0 0 3-3 3 3 0 0 0-3-3z"/></svg>